<svg xmlns="http://www.w3.org/2000/svg" width="25.099" height="25.1" viewBox="0 0 25.099 25.1">
  <g id="组_2420" data-name="组 2420" transform="translate(-61.05 -63.85)">
    <path id="路径_962" data-name="路径 962" d="M355.043,250.6a4.465,4.465,0,0,0-4.435,4.066c-.006.031-.006.061-.008.1v.025a.886.886,0,0,0,1.772,0v-.017a2.693,2.693,0,1,1,2.669,3c-.025,0-.05,0-.078-.006,0,0,0,.006-.006.008a.889.889,0,0,0-.8.883v3.434a.886.886,0,0,0,1.772,0v-2.635a4.473,4.473,0,0,0-.88-8.858Z" transform="translate(-281.459 -181.532)" fill="#333"/>
    <path id="路径_963" data-name="路径 963" d="M478.786,712.986m-.886,0a.886.886,0,1,0,.886-.886A.886.886,0,0,0,477.9,712.986Z" transform="translate(-405.202 -630.136)" fill="#333"/>
    <path id="路径_964" data-name="路径 964" d="M84.426,82.749a12.552,12.552,0,1,0-4.471,4.474l4.622,1.238a.892.892,0,0,0,1.09-1.09ZM65.941,84.065a10.836,10.836,0,1,1,16.791-1.836l.008.008a.888.888,0,0,0-.1.687l.919,3.429-3.429-.919a.891.891,0,0,0-.693.1l-.008-.008a10.845,10.845,0,0,1-13.488-1.464Z" transform="translate(0 0)" fill="#333"/>
  </g>
</svg>
