<?xml version="1.0" encoding="utf-8"?>
<!-- Generator: Adobe Illustrator 24.0.0, SVG Export Plug-In . SVG Version: 6.00 Build 0)  -->
<svg version="1.1" id="图层_1" xmlns="http://www.w3.org/2000/svg" xmlns:xlink="http://www.w3.org/1999/xlink" x="0px" y="0px"
	 viewBox="0 0 100 100" style="enable-background:new 0 0 100 100;" xml:space="preserve">
<style type="text/css">
	.st0{fill:none;}
	.st1{fill:#DDDDDD;}
	.st2{fill:#AAAAAA;}
</style>
<g id="组_2204" transform="translate(-465 -870)">
	<g id="椭圆_53" transform="translate(465 870)">
		<circle class="st0" cx="50" cy="50" r="50"/>
		<path class="st1" d="M50,100C22.4,100,0,77.6,0,50S22.4,0,50,0s50,22.4,50,50S77.6,100,50,100z M50,2C23.5,2,2,23.5,2,50
			c0,26.5,21.5,48,48,48s48-21.5,48-48C98,23.5,76.5,2,50,2z"/>
	</g>
	<path id="路径_1212" class="st2" d="M512.4,923.9c0,10.8-4.5,16.1-13.5,16.1c-8.6,0-12.9-5.2-12.9-15.5v-23.8h2.6v23.4
		c0,9,3.6,13.5,10.8,13.5c6.9,0,10.4-4.4,10.4-13.1v-23.8h2.6V923.9z M544,938.1c-3,1.3-6.3,2-9.6,1.9c-4.8,0.2-9.5-1.8-12.7-5.3
		c-3.3-3.6-4.9-8.2-4.9-13.9c0-6.3,1.8-11.3,5.3-15.1c3.5-3.8,8.4-5.8,13.6-5.7c2.9,0,5.7,0.5,8.4,1.5v2.8c-2.6-1.2-5.5-1.8-8.4-1.8
		c-4.4-0.2-8.7,1.7-11.7,4.9c-3,3.3-4.5,7.7-4.5,13.1c0,5.3,1.4,9.4,4.3,12.5c2.8,3,6.8,4.7,10.9,4.6c3.3,0.1,6.5-0.7,9.4-2.1V938.1
		z"/>
</g>
</svg>
