<?xml version="1.0" encoding="utf-8"?>
<!-- Generator: Adobe Illustrator 24.0.0, SVG Export Plug-In . SVG Version: 6.00 Build 0)  -->
<svg version="1.1" id="图层_1" xmlns="http://www.w3.org/2000/svg" xmlns:xlink="http://www.w3.org/1999/xlink" x="0px" y="0px"
	 viewBox="0 0 100 100" style="enable-background:new 0 0 100 100;" xml:space="preserve">
<style type="text/css">
	.st0{fill:#DDDDDD;}
	.st1{fill:#AAAAAA;}
</style>
<g id="weixin" transform="translate(-255 -870)">
	<g id="椭圆_52" transform="translate(255 870)">
		<path class="st0" d="M50,100C22.4,100,0,77.6,0,50S22.4,0,50,0s50,22.4,50,50S77.6,100,50,100z M50,2C23.5,2,2,23.5,2,50
			s21.5,48,48,48s48-21.5,48-48S76.5,2,50,2z"/>
	</g>
	<path id="路径_1121" class="st1" d="M304.5,909.6c1.6,0,2.8-1.2,2.9-2.8s-1.2-2.8-2.8-2.9h-0.1c-1.7,0-3.4,1.1-3.4,2.8
		C301.2,908.5,302.8,909.6,304.5,909.6z M288.8,904c-1.7,0-3.4,1.1-3.4,2.8s1.7,2.8,3.4,2.8c1.6,0,2.8-1.3,2.8-2.9
		C291.5,905.2,290.3,904,288.8,904L288.8,904z M338.2,927.6c0-8.9-8.3-16.5-18.4-17.3c0-0.1,0-0.2,0-0.3c-2-9.5-12.2-16.6-23.7-16.6
		c-13,0-23.6,9.1-23.6,20.2c0,6,3,11.4,8.8,15.6l-2,6.1c-0.2,0.5,0.1,1.1,0.6,1.3c0.1,0,0.2,0.1,0.3,0.1c0.2,0,0.3,0,0.5-0.1
		l7.6-3.8l0.9,0.2c2.2,0.5,4.5,0.8,6.8,0.9c0.7,0,1.5,0,2.2-0.1c0.3,0,0.5-0.2,0.7-0.4c2.7,6.8,10.2,11.7,19.1,11.7
		c2.2-0.1,4.5-0.4,6.6-1.1l5.8,3.2c0.5,0.3,1.1,0.1,1.4-0.4c0.1-0.2,0.2-0.5,0.1-0.8l-1.5-5C335.5,937.1,338.2,932.3,338.2,927.6z
		 M298.1,931.6c-0.7,0.1-1.3,0.1-2,0.1c-2.2-0.1-4.3-0.3-6.4-0.8l-1.3-0.3c-0.2,0-0.5,0-0.7,0.1l-5.7,2.8l1.5-4.4
		c0.1-0.4,0-0.9-0.4-1.2c-5.7-4-8.6-8.8-8.6-14.4c0-10,9.6-18.1,21.5-18.1c10.5,0,19.8,6.4,21.7,14.9c-11,0.1-19.9,7.9-19.9,17.4
		c0,1.4,0.2,2.7,0.6,4C298.3,931.6,298.2,931.6,298.1,931.6L298.1,931.6z M328.7,939.8c-0.3,0.3-0.5,0.7-0.4,1.1l1,3.2l-4-2.2
		c-0.2-0.1-0.3-0.1-0.5-0.1c-0.1,0-0.2,0-0.2,0c-2.1,0.6-4.3,1-6.5,1.1c-10,0-18.1-6.9-18.1-15.3s8.1-15.3,18.1-15.3
		c9.8,0,18.1,7,18.1,15.3C336.2,931.9,333.5,936.2,328.7,939.8L328.7,939.8z M311.9,920.3c-1.2,0-2.3,1-2.3,2.3s1,2.3,2.3,2.3
		c1.2,0.3,2.5-0.5,2.8-1.8c0.3-1.2-0.5-2.5-1.8-2.8C312.5,920.3,312.2,920.3,311.9,920.3z M324.2,920.3c-1.2,0-2.3,1-2.3,2.3
		s1,2.3,2.3,2.3c1.2,0.3,2.5-0.5,2.8-1.7s-0.5-2.5-1.7-2.8C324.9,920.3,324.6,920.3,324.2,920.3z"/>
</g>
</svg>
