<?xml version="1.0" encoding="utf-8"?>
<!-- Generator: Adobe Illustrator 24.0.0, SVG Export Plug-In . SVG Version: 6.00 Build 0)  -->
<svg version="1.1" id="图层_1" xmlns="http://www.w3.org/2000/svg" xmlns:xlink="http://www.w3.org/1999/xlink" x="0px" y="0px"
	 viewBox="0 0 131 130.2" style="enable-background:new 0 0 131 130.2;" xml:space="preserve">
<style type="text/css">
	.st0{fill:#64A1F0;}
</style>
<g>
	
		<rect x="95.8" y="60.6" transform="matrix(0.7069 -0.7073 0.7073 0.7069 -18.3272 88.2692)" class="st0" width="3.1" height="11.3"/>
	<rect x="82.7" y="41" transform="matrix(0.7071 -0.7071 0.7071 0.7071 -6.1617 73.392)" class="st0" width="5.6" height="6.3"/>
	<path class="st0" d="M85.4,32.6L73.7,44.3L85.4,56l11.7-11.7L85.4,32.6z M84.9,51.7l-1.3-1.3l0.9-0.9l-4.5-4.5L79.2,46l-1.3-1.3
		l7.2-7.2l7,7L84.9,51.7z"/>
	<path class="st0" d="M98.4,57.8l7.5,7.5c-0.6-2.3-0.9-4.5-0.9-6.7C102.9,58.6,100.7,58.3,98.4,57.8z"/>
	<path class="st0" d="M77.2,0H0.8L131,130.2V53.8L77.2,0z M106.9,49.6c-0.8,0.4-1.6,0.7-2.4,0.9l4.8,4.8l-1.1,1.1l-5.4-5.4
		c-1.8,0.5-3.6,0.7-5.5,0.7c0-0.6,0-1.3,0-1.9c2.8,0,5.6-0.5,8.3-1.7L106.9,49.6z M103.9,52.6c-0.1,1.1-0.3,2.2-0.4,3.3l-1.7-0.3
		c0.3-1,0.5-2.1,0.7-3.3L103.9,52.6z M65.7,39.6l-8.8-8.8c-1.7-1.7-1.7-3.4,0.1-5.2l8.6-8.6l1.4,1.4l-2.3,2.3l9.9,9.9l4.3-4.3
		L67,14.5l1.2-1.2l13.3,13.3l-7.7,7.7l-1.4-1.4l1-1L63.5,22l-4.8,4.8c-1,1-1,2-0.1,3l8.2,8.2c0.9,1,1.9,1.2,2.8,0.7
		c0.9-0.5,1.9-1.2,3.1-2.3c0.2,0.6,0.6,1.3,0.9,1.9c-1.3,1-2.4,1.7-3.2,2.3C68.8,41.5,67.2,41.2,65.7,39.6z M83.1,58.3l1.1-1.1
		L72.5,45.5l-1.1,1.1L70,45.2L85.2,30l14.5,14.5L84.5,59.6L83.1,58.3z M99.4,74.8l-1.3-1.3l1-1l-8-8L90,65.5l-1.3-1.3l5.6-5.6
		l10.6,10.6L99.4,74.8z M107.9,70.7c-0.8-1.8-1.5-3.5-2-5.2l-1,1L97,58.6l1-1c-1.8-0.5-3.6-1.1-5.5-1.9c0.2-0.6,0.3-1.3,0.4-1.9
		c4.8,2.2,9,3.2,12.6,2.9l1.2,1.2c-0.2,3.9,0.9,8,3.3,12.2C109.2,70.4,108.5,70.6,107.9,70.7z M111.1,64l-1.8-0.4
		c0.3-1.1,0.5-2.3,0.6-3.6l1.6,0.4C111.5,61.7,111.4,62.9,111.1,64z M115.8,64.1l-5.7-5.7c-1,0.3-2,0.5-3,0.7c0-0.6-0.1-1.3-0.2-1.9
		c2.1-0.2,4.1-0.9,5.8-1.9l1.4,1.4c-0.8,0.4-1.5,0.8-2.3,1.1l5.2,5.2L115.8,64.1z"/>
</g>
</svg>
