<?xml version="1.0" encoding="utf-8"?>
<!-- Generator: Adobe Illustrator 24.0.0, SVG Export Plug-In . SVG Version: 6.00 Build 0)  -->
<svg version="1.1" id="图层_1" xmlns="http://www.w3.org/2000/svg" xmlns:xlink="http://www.w3.org/1999/xlink" x="0px" y="0px"
	 viewBox="0 0 100 100" style="enable-background:new 0 0 100 100;" xml:space="preserve">
<style type="text/css">
	.st0{fill:#DDDDDD;}
	.st1{fill:#AAAAAA;}
</style>
<g id="zhanghao" transform="translate(-395 -870)">
	<g id="椭圆_51" transform="translate(395 870)">
		<path class="st0" d="M50,100C22.4,100,0,77.6,0,50S22.4,0,50,0s50,22.4,50,50S77.6,100,50,100z M50,2C23.5,2,2,23.5,2,50
			s21.5,48,48,48s48-21.5,48-48S76.5,2,50,2z"/>
	</g>
	<g id="组_2183" transform="translate(268.4 745.653)">
		<path id="路径_1123" class="st1" d="M198.1,197.4c-0.7,0-1.3-0.6-1.3-1.3c0-11.2-9.1-20.3-20.3-20.3s-20.3,9.1-20.3,20.3
			c0,0.7-0.6,1.3-1.3,1.3s-1.3-0.6-1.3-1.3c0.1-12.6,10.4-22.8,23-22.7c12.5,0.1,22.7,10.2,22.7,22.7
			C199.4,196.8,198.8,197.4,198.1,197.4z"/>
		<path id="路径_1124" class="st1" d="M176.5,175.8c-6.8,0-12.2-5.5-12.2-12.2s5.5-12.2,12.2-12.2c6.8,0,12.2,5.5,12.2,12.2
			S183.2,175.8,176.5,175.8z M176.5,154c-5.3,0-9.6,4.3-9.6,9.6s4.3,9.6,9.6,9.6s9.6-4.3,9.6-9.6S181.8,154,176.5,154L176.5,154z"/>
	</g>
</g>
</svg>
