<?xml version="1.0" encoding="utf-8"?>
<!-- Generator: Adobe Illustrator 24.0.0, SVG Export Plug-In . SVG Version: 6.00 Build 0)  -->
<svg version="1.1" id="图层_1" xmlns="http://www.w3.org/2000/svg" xmlns:xlink="http://www.w3.org/1999/xlink" x="0px" y="0px"
	 viewBox="0 0 100 100" style="enable-background:new 0 0 100 100;" xml:space="preserve">
<style type="text/css">
	.st0{fill:#DDDDDD;}
	.st1{fill:#AAAAAA;}
</style>
<g id="shouji" transform="translate(-395 -870)">
	<g id="椭圆_51" transform="translate(395 870)">
		<path class="st0" d="M50,100C22.4,100,0,77.6,0,50S22.4,0,50,0s50,22.4,50,50S77.6,100,50,100z M50,2C23.5,2,2,23.5,2,50
			s21.5,48,48,48s48-21.5,48-48S76.5,2,50,2z"/>
	</g>
	<path id="路径_1120" class="st1" d="M456.1,945h-23c-3.7,0-6.7-3-6.7-6.7v-36.5c0-3.7,3-6.7,6.7-6.7h23c3.7,0,6.7,3,6.7,6.7v36.5
		C462.8,941.9,459.8,944.9,456.1,945z M433.1,897c-2.7,0-4.8,2.1-4.8,4.8l0,0v36.5c0,2.7,2.1,4.8,4.8,4.8l0,0h23
		c2.7,0,4.8-2.1,4.8-4.8l0,0v-36.5c0-2.7-2.1-4.8-4.8-4.8l0,0H433.1L433.1,897z M444.6,940.8c-2.1,0-3.8-1.7-3.8-3.8
		s1.7-3.8,3.8-3.8c2.1,0,3.8,1.7,3.8,3.8S446.7,940.8,444.6,940.8L444.6,940.8z M444.6,935.1c-1.1,0-1.9,0.9-1.9,1.9
		c0,1.1,0.9,1.9,1.9,1.9c1.1,0,1.9-0.9,1.9-1.9C446.5,935.9,445.6,935.1,444.6,935.1z M450.3,902.6h-11.5c-0.5,0-0.9-0.5-0.9-1
		s0.4-0.9,0.9-0.9h11.5c0.5,0,1,0.4,1,0.9S450.9,902.6,450.3,902.6C450.4,902.6,450.3,902.6,450.3,902.6z"/>
</g>
</svg>
