<svg xmlns="http://www.w3.org/2000/svg" xmlns:xlink="http://www.w3.org/1999/xlink" width="126" height="119" viewBox="0 0 126 119">
  <defs>
    <clipPath id="clip-path">
      <rect id="矩形_2332" data-name="矩形 2332" width="126" height="119" transform="translate(604 702)" fill="#fff" stroke="#707070" stroke-width="1"/>
    </clipPath>
  </defs>
  <g id="蒙版组_104" data-name="蒙版组 104" transform="translate(-604 -702)" clip-path="url(#clip-path)">
    <g id="组_2426" data-name="组 2426">
      <rect id="矩形_2331" data-name="矩形 2331" width="195" height="40" transform="translate(639.699 670.915) rotate(45)" fill="#f6f6f6"/>
      <path id="路径_1148" data-name="路径 1148" d="M16.7-7.28v-8H1.9v1.4H15.24v5.22H4.14v-2.96H2.7v10.5A2.169,2.169,0,0,0,5.12,1.36H15.96A2.939,2.939,0,0,0,17.9.68c.48-.52.82-2,1.02-4.48l-1.4-.44q-.18,3.3-.78,3.84a1.845,1.845,0,0,1-1.18.36H5.52A1.208,1.208,0,0,1,4.14-1.38v-5.9Zm9.46-3.48v7.12h7.72v-7.12Zm6.36,5.9H27.5V-9.52h5.02Zm5.5-10.28H21.98V1.68h1.4V.82H36.62v.86h1.4ZM23.38-.46v-13.4H36.62V-.46ZM43.94-13.34h1.72a20.016,20.016,0,0,1,1.1,2.28l1.3-.48a15.764,15.764,0,0,0-.94-1.8h2.82v-1.32H44.56c.2-.52.4-1.04.58-1.58l-1.38-.3a14.435,14.435,0,0,1-2.74,5l1.22.78A15.563,15.563,0,0,0,43.94-13.34Zm8.26,0h1.92a19.906,19.906,0,0,1,1.38,2.58l1.3-.46a19.787,19.787,0,0,0-1.18-2.12h3.24v-1.32h-6c.2-.48.4-1,.58-1.56l-1.38-.3a11.857,11.857,0,0,1-2.24,4.2l1.2.74A17.993,17.993,0,0,0,52.2-13.34Zm3.78,9H44.02V1.98H45.4v-.9h9.2v.9h1.38ZM45.4-.24V-3.02h9.2V-.24Zm0-6.86v.9h9.24v-.9a32.015,32.015,0,0,0,3.82,1.76l.7-1.24a29.626,29.626,0,0,1-8.7-4.82H49.5a29.207,29.207,0,0,1-8.54,4.78l.68,1.26A38.615,38.615,0,0,0,45.4-7.1Zm8.46-.44H46.18a23.453,23.453,0,0,0,3.8-2.74A25.369,25.369,0,0,0,53.86-7.54Z" transform="translate(664.741 731.969) rotate(45)" fill="#707070"/>
    </g>
  </g>
</svg>
