<svg xmlns="http://www.w3.org/2000/svg" viewBox="0 0 100 100"><path d="M50 100C22.4 100 0 77.6 0 50S22.4 0 50 0s50 22.4 50 50-22.4 50-50 50zm0-98C23.5 2 2 23.5 2 50s21.5 48 48 48 48-21.5 48-48S76.5 2 50 2z" fill="#ddd"/><path d="M61.1 75h-23c-3.7 0-6.7-3-6.7-6.7V31.8c0-3.7 3-6.7 6.7-6.7h23c3.7 0 6.7 3 6.7 6.7v36.5c0 3.6-3 6.6-6.7 6.7zm-23-48c-2.7 0-4.8 2.1-4.8 4.8v36.5c0 2.7 2.1 4.8 4.8 4.8h23c2.7 0 4.8-2.1 4.8-4.8V31.8c0-2.7-2.1-4.8-4.8-4.8h-23zm11.5 43.8c-2.1 0-3.8-1.7-3.8-3.8s1.7-3.8 3.8-3.8c2.1 0 3.8 1.7 3.8 3.8s-1.7 3.8-3.8 3.8zm0-5.7c-1.1 0-1.9.9-1.9 1.9 0 1.1.9 1.9 1.9 1.9 1.1 0 1.9-.9 1.9-1.9 0-1.1-.9-1.9-1.9-1.9zm5.7-32.5H43.8c-.5 0-.9-.5-.9-1s.4-.9.9-.9h11.5c.5 0 1 .4 1 .9s-.4 1-1 1c.1 0 0 0 0 0z" fill="#aaa"/></svg>