<svg xmlns="http://www.w3.org/2000/svg" width="126" height="119"><defs><clipPath id="a"><path data-name="矩形 2332" transform="translate(604 702)" fill="#fff" stroke="#707070" d="M0 0h126v119H0z"/></clipPath></defs><g data-name="蒙版组 104" transform="translate(-604 -702)" clip-path="url(#a)"><g data-name="组 2426"><path data-name="矩形 2331" fill="#f6f6f6" d="M639.699 670.915l137.886 137.886-28.284 28.284L611.415 699.2z"/><path data-name="路径 1148" d="M681.697 738.63l5.657-5.657-10.465-10.465-.99.99 9.433 9.433-3.691 3.69-7.849-7.848 2.093-2.093-1.018-1.018-7.425 7.424a2.169 2.169 0 0 0-.042 3.465l7.665 7.665a2.939 2.939 0 0 0 1.852.891c.707-.028 1.994-.834 3.89-2.447l-.68-1.3q-2.46 2.206-3.266 2.163a1.845 1.845 0 0 1-1.09-.58l-7.098-7.1a1.208 1.208 0 0 1-.029-1.922l4.172-4.172zm9.15 4.228l-5.034 5.035 5.459 5.459 5.034-5.035zm.326 8.67l-3.55-3.55 3.295-3.295 3.55 3.55zm11.158-3.38l-11.342-11.342-11.894 11.893.99.99.608-.608 9.362 9.362-.608.608.99.99zm-20.733.028l9.476-9.475 9.362 9.362-9.475 9.475zm23.646 5.43l1.216 1.217a20.016 20.016 0 0 1-.834 2.39l1.259.58a15.764 15.764 0 0 0 .608-1.938l1.994 1.994.933-.933-3.804-3.805c.509-.226 1.018-.452 1.527-.707l-.763-1.188a14.435 14.435 0 0 1-5.473 1.599l.31 1.414a15.563 15.563 0 0 0 3.027-.623zm5.84 5.841l1.358 1.358a19.906 19.906 0 0 1-.848 2.8l1.244.594a19.787 19.787 0 0 0 .665-2.334l2.291 2.292.933-.934-4.242-4.243c.48-.198.99-.424 1.513-.692l-.764-1.188a11.857 11.857 0 0 1-4.553 1.386l.325 1.371a17.993 17.993 0 0 0 2.079-.41zm-3.69 9.037l-8.457-8.457-4.47 4.469.977.976.636-.637 6.505 6.506-.636.636.976.976zm-10.38-4.582l1.965-1.966 6.505 6.506-1.965 1.965zm4.85-4.85l-.636.636 6.533 6.533.637-.636a32.015 32.015 0 0 0 1.456 3.946l1.372-.382a29.626 29.626 0 0 1-2.743-9.56l-.68-.68a29.207 29.207 0 0 1-9.418-2.658l-.41 1.372a38.615 38.615 0 0 0 3.89 1.428zm6.293 5.67l-5.43-5.43a23.453 23.453 0 0 0 4.624.75 25.369 25.369 0 0 0 .806 4.68z" fill="#707070"/></g></g></svg>