<svg id="图层_1" xmlns="http://www.w3.org/2000/svg" viewBox="0 0 100 100"><style>.st1{fill:#aaa}</style><g id="zhanghao" transform="translate(-395 -870)"><path d="M50 100C22.4 100 0 77.6 0 50S22.4 0 50 0s50 22.4 50 50-22.4 50-50 50zm0-98C23.5 2 2 23.5 2 50s21.5 48 48 48 48-21.5 48-48S76.5 2 50 2z" fill="#ddd" transform="translate(395 870)" id="椭圆_51"/><g id="组_2183" transform="translate(268.4 745.653)"><path id="路径_1123" class="st1" d="M198.1 197.4c-.7 0-1.3-.6-1.3-1.3 0-11.2-9.1-20.3-20.3-20.3s-20.3 9.1-20.3 20.3c0 .7-.6 1.3-1.3 1.3s-1.3-.6-1.3-1.3c.1-12.6 10.4-22.8 23-22.7 12.5.1 22.7 10.2 22.7 22.7.1.7-.5 1.3-1.2 1.3z"/><path id="路径_1124" class="st1" d="M176.5 175.8c-6.8 0-12.2-5.5-12.2-12.2s5.5-12.2 12.2-12.2c6.8 0 12.2 5.5 12.2 12.2s-5.5 12.2-12.2 12.2zm0-21.8c-5.3 0-9.6 4.3-9.6 9.6s4.3 9.6 9.6 9.6 9.6-4.3 9.6-9.6-4.3-9.6-9.6-9.6z"/></g></g></svg>