<svg xmlns="http://www.w3.org/2000/svg" width="21.6" height="26.089"><g data-name="组 1796"><path data-name="路径 999" d="M2 5.688l8.079-4.478 10.373 4.478-.182 7.476-.725 6.355-9.466 5.046-8.73-6.462z" fill="#fff"/><g data-name="组 1795" fill="#1878f3"><path data-name="路径 997" d="M10.8 26.089a3.742 3.742 0 0 1-1.738-.43C5.677 23.875 0 20.197 0 15.594V5.663a1.184 1.184 0 0 1 1.146-1.185 8.42 8.42 0 0 0 6.253-3.105 3.8 3.8 0 0 1 2.969-1.374h.332a3.736 3.736 0 0 1 2.881 1.4 8.453 8.453 0 0 0 6.575 3.083h.186a1.169 1.169 0 0 1 .885.319 1.19 1.19 0 0 1 .374.863v9.934c0 4.6-5.677 8.281-9.062 10.065a3.732 3.732 0 0 1-1.739.426zM2.373 6.751v8.844c0 3.581 5.966 7 7.8 7.965a1.361 1.361 0 0 0 1.266 0c1.826-.963 7.793-4.385 7.793-7.965V6.823a10.751 10.751 0 0 1-7.483-3.916 1.365 1.365 0 0 0-1.045-.531h-.332a1.455 1.455 0 0 0-1.13.5 10.8 10.8 0 0 1-6.869 3.875z"/><path data-name="路径 998" d="M10.208 17.434a1.189 1.189 0 0 1-.83-.339l-2.373-2.324a1.186 1.186 0 1 1 1.66-1.693l1.536 1.507 3.581-3.541a1.185 1.185 0 1 1 1.667 1.686l-4.407 4.362a1.181 1.181 0 0 1-.834.342z"/></g></g></svg>