<svg xmlns="http://www.w3.org/2000/svg" width="25.099" height="25.1"><g data-name="组 2420" fill="#333"><path data-name="路径 962" d="M12.534 5.218a4.465 4.465 0 0 0-4.435 4.066c-.006.031-.006.061-.008.1v.025a.886.886 0 0 0 1.772 0v-.017a2.693 2.693 0 1 1 2.669 3c-.025 0-.05 0-.078-.006 0 0 0 .006-.006.008a.889.889 0 0 0-.8.883v3.434a.886.886 0 0 0 1.772 0v-2.635a4.473 4.473 0 0 0-.88-8.858z"/><path data-name="路径 963" d="M11.648000000000001 19a.886.886 0 1 0 .886-.886.886.886 0 0 0-.886.886z"/><path data-name="路径 964" d="M23.376 18.899a12.552 12.552 0 1 0-4.471 4.474l4.622 1.238a.892.892 0 0 0 1.09-1.09zM4.891 20.215a10.836 10.836 0 1 1 16.791-1.836l.008.008a.888.888 0 0 0-.1.687l.919 3.429-3.429-.919a.891.891 0 0 0-.693.1l-.008-.008a10.845 10.845 0 0 1-13.488-1.464z"/></g></svg>