<svg xmlns="http://www.w3.org/2000/svg" viewBox="0 0 100 100"><path d="M50 100C22.4 100 0 77.6 0 50S22.4 0 50 0s50 22.4 50 50-22.4 50-50 50zm0-98C23.5 2 2 23.5 2 50s21.5 48 48 48 48-21.5 48-48S76.5 2 50 2z" fill="#ddd"/><path d="M49.5 39.6c1.6 0 2.8-1.2 2.9-2.8s-1.2-2.8-2.8-2.9h-.1c-1.7 0-3.4 1.1-3.4 2.8.1 1.8 1.7 2.9 3.4 2.9zM33.8 34c-1.7 0-3.4 1.1-3.4 2.8s1.7 2.8 3.4 2.8c1.6 0 2.8-1.3 2.8-2.9-.1-1.5-1.3-2.7-2.8-2.7zm49.4 23.6c0-8.9-8.3-16.5-18.4-17.3V40c-2-9.5-12.2-16.6-23.7-16.6-13 0-23.6 9.1-23.6 20.2 0 6 3 11.4 8.8 15.6l-2 6.1c-.2.5.1 1.1.6 1.3.1 0 .2.1.3.1.2 0 .3 0 .5-.1l7.6-3.8.9.2c2.2.5 4.5.8 6.8.9.7 0 1.5 0 2.2-.1.3 0 .5-.2.7-.4 2.7 6.8 10.2 11.7 19.1 11.7 2.2-.1 4.5-.4 6.6-1.1l5.8 3.2c.5.3 1.1.1 1.4-.4.1-.2.2-.5.1-.8l-1.5-5c5.1-3.9 7.8-8.7 7.8-13.4zm-40.1 4c-.7.1-1.3.1-2 .1-2.2-.1-4.3-.3-6.4-.8l-1.3-.3c-.2 0-.5 0-.7.1L27 63.5l1.5-4.4c.1-.4 0-.9-.4-1.2-5.7-4-8.6-8.8-8.6-14.4 0-10 9.6-18.1 21.5-18.1 10.5 0 19.8 6.4 21.7 14.9-11 .1-19.9 7.9-19.9 17.4 0 1.4.2 2.7.6 4-.1-.1-.2-.1-.3-.1zm30.6 8.2c-.3.3-.5.7-.4 1.1l1 3.2-4-2.2c-.2-.1-.3-.1-.5-.1h-.2c-2.1.6-4.3 1-6.5 1.1-10 0-18.1-6.9-18.1-15.3s8.1-15.3 18.1-15.3c9.8 0 18.1 7 18.1 15.3 0 4.3-2.7 8.6-7.5 12.2zM56.9 50.3c-1.2 0-2.3 1-2.3 2.3s1 2.3 2.3 2.3c1.2.3 2.5-.5 2.8-1.8.3-1.2-.5-2.5-1.8-2.8h-1zm12.3 0c-1.2 0-2.3 1-2.3 2.3s1 2.3 2.3 2.3c1.2.3 2.5-.5 2.8-1.7s-.5-2.5-1.7-2.8c-.4-.1-.7-.1-1.1-.1z" fill="#aaa"/></svg>