<svg id="组_2342" data-name="组 2342" xmlns="http://www.w3.org/2000/svg" width="36.467" height="36.469" viewBox="0 0 36.467 36.469">
  <path id="路径_1237" data-name="路径 1237" d="M347.737,299.482q-.247-.651-.408-1.041a3.886,3.886,0,0,0-.394-.729,1.824,1.824,0,0,0-.614-.555,1.9,1.9,0,0,0-.949-.215,1.883,1.883,0,0,0-.94.215,1.789,1.789,0,0,0-.614.564,4.569,4.569,0,0,0-.44.876l-.353.9-3.439,8.729q-.211.523-.3.816a1.9,1.9,0,0,0-.092.569,1.151,1.151,0,0,0,.394.853,1.277,1.277,0,0,0,.908.376,1.021,1.021,0,0,0,.871-.353,6.034,6.034,0,0,0,.642-1.362l.642-1.724h5.465l.642,1.687q.128.312.307.72a2.866,2.866,0,0,0,.335.605,1.127,1.127,0,0,0,.385.312,1.219,1.219,0,0,0,.55.115,1.281,1.281,0,0,0,.94-.39,1.192,1.192,0,0,0,.39-.857,4.362,4.362,0,0,0-.413-1.44l-3.512-8.674Zm-4.374,5.878,1.99-5.548,2.026,5.548h-4.016Z" transform="translate(-327.111 -286.367)" fill="#fff"/>
  <path id="路径_1238" data-name="路径 1238" d="M33.485,28.175a18.039,18.039,0,0,0,2.982-9.942A18.278,18.278,0,1,0,26.289,34.576l5.979,1.8A2.271,2.271,0,0,0,35.1,33.546l-1.61-5.37ZM33.121,34.4a.278.278,0,0,1-.283.071l-6.351-1.907-.387-.116-.358.187a16.242,16.242,0,1,1,8.74-14.4,16.073,16.073,0,0,1-2.894,9.226l-.273.393.138.458,1.741,5.8a.285.285,0,0,1-.072.282Z" transform="translate(0)" fill="#fff"/>
</svg>
