<svg xmlns="http://www.w3.org/2000/svg" viewBox="0 0 80.6 80.6"><path d="M70 80.6H10.6C4.8 80.6 0 75.8 0 70V11.5C0 5.2 5.2 0 11.5 0H70c5.8 0 10.6 4.8 10.6 10.6V70c0 5.8-4.8 10.6-10.6 10.6z" fill="#f40009"/><path d="M66.4 45.2c.6.1 1.1.3 1.4.7.4.6.3 1.5-.3 2-.3.3-.7.4-1.1.4v.8c0 .4-.3.7-.6.7h-5c-.3 0-.6-.3-.6-.6V44c0-.1.1-.3.3-.2h5.8c.1 0 .2.1.2.2v1.2h-.1zm.1 2.9zM34.3 29.7l-1.5.5 1 1.8.6.1.2 2.1-2 .3.9 3 1-.9.3 2.8-1.8.7 2.9 2.1.7-5.8.5-.7.5 1.5 1.2.1.2 4.9 1.4-.9 1-4.3 1.6.1.8 5 1.3-.9.6-4 2.4-.3-.6-1.9-2-.4.6-2.4h1.6l-.6-1.9h-2.5l2.5-2-2.5-2-1.5 3.8-1.7.4.8-2.6-3.5-1.5 1.3 3.8-2 .6v-1.1l-1.2-.2-1.1-3.1-1.4 3.3zm3 1.6l.6 1.2 1.2.3.4 1.9-1.8.6.5-1.2-1.8.1.3-2.2.6-.7zm4.5 1.5l1.5-.3.2 2.2-2 .4.3-2.3zM22.5 11L7.2 21.9l15.3 11.2V11zm1.2 0v22l15.8-10.9L23.7 11zM7.2 23.4v21.9l15.1-10.9-15.1-11zm15.3 12.1L7.2 46.2l15.3 11.2V35.5zm1.2 0v21.9l15-11-15-10.9zm.6 22.9l15.5 11.2-.1-22.1-15.4 10.9zm16.5-10.9v22.1l15.5-11.2-15.5-10.9zm.9-1l15.2 10.9-.1-22-15.1 11.1zm16.2-11.1v22l15.5-11.1-15.5-10.9zm.4-1.1l15.1 11V23.4L58.3 34.3zM57.9 11v22l15.5-11.2L57.9 11zm-1 0l-16 11.2 16 10.9V11zM44.1 55.4c.3-.6.9-1.1 1.6-1.1V54c0-.1.1-.2.2-.2h.3c.1 0 .2.1.2.2v.3c1.4.2 1.5 1.1 1.5 1.1h.1c.3 0 .4.2.4.3 0 .1-.1.2-.3.2h-4.4c-.1 0-.3-.1-.3-.3 0-.1.1-.3.3-.3l.4.1zM30.4 18.2c1 .2 1.9.6 2.8 1.1.2.1.1.5 0 .6l-.8 1-.4-.4v4.3c0 .3-.2.5-.5.5H27c-.2 0-.4-.2-.4-.4v-4.3l-.4.4-.8-1.2c-.1-.1-.1-.2 0-.3.8-.6 1.8-.9 2.8-1.2.1.6.7 1.1 1.3 1 .5-.2.9-.6.9-1.1zM15.7 25c-.3.2-.6.2-.9.1-.3-.2-.5-.6-.4-.9l1.5-2.6c.1-.1.2-.3.3-.5 0-.3-.1-.3-.2-.8-.1-.3-.1-.6-.1-.9 0-.2.1-.4.2-.6-.1-.4-.1-.7 0-.8h.2c.2.1.4.4.3.6.1 0 .2 0 .3.1.2.1.4.2.5.4.2-.3.5-.4.8-.5 0-.3.1-.5.3-.6h.2c.1.1.2.4 0 .8.1.2.2.3.3.5.1.2 0 .4-.1.8-.1.3-.2.6-.3 1.1.4.8.9 1.6 1.4 2.3.2.3.3.4.4.6.1.4 0 .9-.4 1.1-.3.1-.6.1-.9-.1-.2.3-.5.4-.8.5-.4 0-.7-.1-1-.3-.2.2-.5.4-.8.3-.3 0-.6-.3-.8-.6zm-4.4 7.1c0-.9.8-1.6 1.7-1.6.9 0 1.6.7 1.6 1.6.4 0 .7.2 1 .4.3.4.5.8.6 1.3.2.8.3 1.7.3 2.5-.1.5-.6.9-1.1 1h-4.7c-.6-.1-1.1-.5-1.2-1.1-.1-1.1.1-2.1.5-3.1.1-.3.3-.5.6-.7.1-.2.4-.3.7-.3zm8.6 17.3v-3.5c-.1-.1-.1-.2-.2-.3-.2-.1-.5.2-.5.3-.5.5-.5 1.1-.8 2.2-.3 1.2-.8 1.3-2.4 1.3-.9.1-1.7-.2-2.4-.8-.2-.3.5-.7 1.4-1 .7-.2 1.4-.4 2.1-.5.5-.7.8-1.5 1.1-2.3.4-.9 1-1.7 1.7-2.3.7.3 1.2.9 1.3 1.6.1.5-.6 1.8-.8 2.6-.1.4 0 2.7 0 2.7h-.5zm6-.3c-.2 0-.4-.2-.4-.4v-4.5c0-.2.2-.4.4-.5.5 0 .9 0 1.4-.1.1-.2.3-.3.5-.7.1-.1.2-.2.3-.2h2.5c.2 0 .3.1.4.2.3.4.4.5.5.6h1.1c.2 0 .3.1.5.2.1.1.2.2.2.3v4.6c0 .2-.2.4-.4.4l-7 .1zm8.6 4.5l.4.6H34l.5-.6zm-4.3 4.6c.2-1.2.8-2.3 1.8-3 1.2-.9 2.7-1.1 4.1-.6.5.2 1 .5 1.4.9.4.3.6.6.9 1 .5 1.1.3 1.6.5 1.6-.7-.4-1.5-.4-2.1 0-.5-.3-1.2-.4-1.7-.2v3.3c-.2.8-1.1 1.2-1.8.9-.6-.2-1-.7-1-1.3 0-.1 0-.2.1-.3 0 0 .2-.3.4-.3s.4.2.4.4c.1.2 0 .3.1.4.2.2.5.3.7.2.1-.1.2-.2.2-.3L34 58c-.6-.2-1.2-.1-1.7.3-.3-.2-.7-.3-1.1-.3-.3-.1-.7 0-1 .2zm13.3-1.3c0-.2.2-.4.4-.4h4.2c.2 0 .4.2.4.4v4c0 .3-.2.6-.5.6h-3.9c-.4 0-.7-.3-.7-.7l.1-3.9zm6.8-13.3l.3-1.2c0-.2.2-.3.3-.3h1.7c.2 0 .3.1.4.3l.3 1.2c-.8-.6-2-.6-3 0zm3.1 5.3l-.3 1.2c0 .2-.2.3-.3.3H51c-.2 0-.3-.1-.4-.3l-.3-1.2c.9.6 2.2.6 3.1 0zm-4-2.7c-.1-1.4 1-2.5 2.4-2.6s2.5 1 2.6 2.4c.1 1.4-1 2.5-2.4 2.6h-.1c-1.4 0-2.5-1.1-2.5-2.4zm11.7-3.1h-.3c-.1 0-.2-.1-.2-.2V42c0-.1.1-.2.2-.2h.3c.1 0 .2.1.2.2v.9c0 .1-.1.2-.2.2zm2.2 0H63c-.1 0-.2-.1-.2-.2v-1.1c0-.1.1-.2.2-.2h.3c.1 0 .2.1.2.2v1.1c0 .1-.1.2-.2.2zm2.2 0h-.3c-.1 0-.2-.1-.2-.2V42c0-.1.1-.2.2-.2h.3c.1 0 .2.1.2.2v.9c0 .1-.1.2-.2.2zM63.3 34c.3-.5.6-.9 1-1.3.6-.5 1.4-.7 2.1-.8.3-.3.6-.6.9-.8.3-.2.8-.4 1-.3.1.4.1.9 0 1.4.2.1.4.2.7.3.6.2 1.1 1 1.4 1s.7-.7 1.1-.9c.3-.1.7 0 .8.3 0 .1.1.2.1.3-.1.4-.2.8-.5 1.1.2.3.3.6.4.9.2.5-.2.8-.6.7s-1-.9-1.3-1-.5.2-.9.6c-.4.3-.8.5-1.2.7v1.1c0 .3-.1.5-.4.4-.5-.3-1-.7-1.5-1.1-.6 0-1.2-.1-1.6-.5-.6-.4-1.1-.9-1.5-1.5-.1-.2-.1-.4 0-.6zm-3.4-11.7c-.1-1.9 1.4-3.4 3.3-3.5 1.9-.1 3.4 1.4 3.5 3.3s-1.4 3.4-3.3 3.5h-.1c-1.9 0-3.4-1.5-3.4-3.3zm.8-5.2c.5-.1 1-.1 1.5.1.8.3.9 1.5.9 1.5-.5.2-1.1.2-1.5-.2-.5-.3-.8-.8-.9-1.4zm4.4.4c0 .4-.3.8-.6 1-.3.3-.8.3-1.2.1 0 0 .1-.9.7-1.1.4 0 .7-.1 1.1 0zm-14.9 7.7l1.4-.7v-1.2s-.2-.2-.7-.6c-.7-.6-1.3-1.3-1.6-2.1-.1-.9 0-1.8.2-2.7h4.7c.2.7.3 1.5.3 2.2-.1.9-.6 1.7-1.2 2.2-.5.4-1.2 1-1.2 1v1.2c.2.1.5.3.7.3.3.1.6.2.9.4v.1l-3.5-.1zM11.8 32H14s-.2-.9-1.1-.9-1.1.9-1.1.9zm54.6 15.8c.8-.3 1.1-.7.9-1.2-.1-.3-.4-.6-.9-.7v1.9z" fill="#fff"/></svg>