<svg xmlns="http://www.w3.org/2000/svg" width="40.512" height="40.512"><g data-name="组 2375"><path data-name="路径 1253" d="M35.7 40.512H4.813A4.826 4.826 0 0 1 0 35.7V4.813A4.826 4.826 0 0 1 4.813 0H35.7a4.826 4.826 0 0 1 4.813 4.813V35.7a4.826 4.826 0 0 1-4.813 4.812z" fill="red"/><path data-name="路径 1254" d="M23.201 21.698a.1.1 0 1 0-.1-.1.1.1 0 0 0 .1.1zm-.084-.071l-.041.058.076.044a.051.051 0 0 1 .026.07.836.836 0 0 1-.134.138l.1.058c.068-.141.065-.125.083-.172s.023-.094-.006-.122-.049-.032-.105-.075zm.608-.016s-.021-.159-.373-.063l.021-.041-.086-.024a.414.414 0 0 1-.1.169l.058.032c.016-.016.034-.032.049-.05l.041-.016a.506.506 0 0 1-.068.1l.037.032a.669.669 0 0 1 .052-.052h.021v.052h-.131v.028h.134v.113a.049.049 0 0 1-.039-.021c-.01-.016 0-.04 0-.068h-.081v.01s-.031.144.091.141a.315.315 0 0 0 .206-.055l.013.044.058-.023a.1.1 0 0 0 0-.032l-.032-.084-.057.016.011.037c-.015.011-.052.018-.052.024v-.105h.105v-.028h-.105v-.053h.105v-.052h-.194c.013 0 .024-.032.028-.04h-.042c.159-.053.237-.049.237.045v.243l.011.029h-.011c0 .023-.023.049-.078.044l-.045-.01-.013.049s.222.065.243-.107a1.064 1.064 0 0 0-.01-.282zm8.046-6.483q-.289.021-.577.058c-1.62.191-3.244.394-4.865.577a1.209 1.209 0 0 1-1.512-1.337c.052-.907.144-1.81.211-2.717.084-1.157.194-2.316.238-3.476a2.942 2.942 0 0 0-2.555-3.192 2.128 2.128 0 0 0-2.583 1.923q-.517 3.173-1.2 6.315a17.146 17.146 0 0 1-1.855 4.865 5.146 5.146 0 0 1-2.184 2.285.647.647 0 0 0-.433.7q.015 6.706.006 13.413v.475c.23-.028.389-.045.546-.07l15.7-2.4a2.341 2.341 0 0 0 2.082-2.679 2.715 2.715 0 0 1 .264-1.6 4.337 4.337 0 0 0 .353-2.693 3.784 3.784 0 0 1 .1-1.8 6.482 6.482 0 0 0 .251-3.849 5.38 5.38 0 0 1 .191-2.188 1.953 1.953 0 0 0-2.179-2.611zm-18.814 6.4v-.58c-.22.034-.35.052-.481.076-1.061.2-2.126.391-3.187.6a1.356 1.356 0 0 0-1.183 1.445v11.392a1.211 1.211 0 0 0 1.462 1.313c.972-.12 1.933-.306 2.9-.42.408-.049.491-.227.488-.608q-.011-6.606 0-13.223z" fill="#fff"/></g></svg>